<svg width="38" height="35" viewBox="0 0 38 35" fill="none" xmlns="http://www.w3.org/2000/svg">
<path d="M5.6541 34.5L1.0126 22.75C0.914243 21.5738 1.40433 21.1219 2.04405 20.5H10.8113L17 32M5.6541 34.5H15.9686C15.4587 33.272 15.7384 32.7394 17 32M5.6541 34.5C5.65176 33.2958 5.82628 32.7186 6.68555 32H17" stroke="#413626" stroke-width="0.5"/>
<path d="M25.6541 14.5L21.0126 2.75C20.9142 1.5738 21.4043 1.12185 22.044 0.5H30.8113L37 12M25.6541 14.5H35.9686C35.4587 13.272 35.7384 12.7394 37 12M25.6541 14.5C25.6518 13.2958 25.8263 12.7186 26.6855 12H37" stroke="#413626"/>
<path d="M26.6774 12L25.3871 14.5L21 2.75C21.0731 1.6275 21.3231 1.15263 22.0323 0.5H30.8065L37 12H26.6774Z" fill="#413626"/>
<path d="M29 20.75C30.1249 20.75 31.0418 20.9895 31.7656 21.4512C32.4747 21.9036 32.8096 22.4947 32.8096 23.2402C32.8095 23.5024 32.762 23.7587 32.666 24.0107L32.6631 24.0205C32.573 24.2908 32.4856 24.4526 32.4131 24.5342L32.4033 24.5449L32.3955 24.5566L32.333 24.6445C31.9667 24.6316 31.5589 24.5665 31.1084 24.4395H31.1094C30.6887 24.3177 30.3856 24.1732 30.1826 24.0156L30.4082 22.0889L30.4219 21.9688L30.3369 21.8828C30.0664 21.6124 29.6425 21.5098 29.1396 21.5098C28.5624 21.5099 28.1158 21.8254 27.8027 22.377L27.8018 22.3789C27.5117 22.901 27.3701 23.4971 27.3701 24.1602C27.3701 24.7989 27.4432 25.3156 27.6123 25.6846C27.7765 26.0428 28.0137 26.3275 28.3242 26.5293V26.5303C28.7083 26.7781 29.1477 26.9585 29.6387 27.0752L29.542 27.7383C28.6802 27.7764 27.912 28.0391 27.2451 28.5352L27.1025 28.6455C26.335 29.2547 25.9502 30.0744 25.9502 31.0801C25.9502 31.6443 26.1089 32.1365 26.4316 32.5439L26.5801 32.7139L26.5859 32.7197C27.0248 33.1435 27.5836 33.3496 28.2402 33.3496C29.365 33.3495 30.4861 32.8076 31.6016 31.7812L32.0518 32.1982C30.5807 33.8736 28.9456 34.6904 27.1396 34.6904C26.257 34.6904 25.4095 34.4382 24.5928 33.9277C24.204 33.6847 23.877 33.3423 23.6152 32.8936C23.3739 32.4569 23.25 31.9481 23.25 31.3604C23.25 30.2351 23.6206 29.3364 24.3525 28.6416C25.0983 27.9337 25.9932 27.5225 27.0469 27.4082L27.085 26.9189C26.4654 26.753 25.9616 26.4836 25.5664 26.1152L25.4043 25.9512C25.0127 25.5109 24.8096 24.9472 24.8096 24.2402C24.8096 23.1698 25.2218 22.3386 26.0498 21.7207V21.7197C26.9121 21.073 27.8927 20.75 29 20.75ZM35.1602 32.4658C35.5743 32.4659 35.9101 32.8017 35.9102 33.2158C35.9102 33.63 35.5743 33.9657 35.1602 33.9658C34.7459 33.9658 34.4102 33.63 34.4102 33.2158C34.4102 32.8016 34.7459 32.4658 35.1602 32.4658ZM36.7373 21.0234C36.7567 21.0411 36.7829 21.0717 36.8154 21.123C36.8855 21.2334 36.9065 21.385 36.877 21.5518L36.0244 26.3457L36.4111 21.4912C36.4243 21.3259 36.4809 21.1917 36.5713 21.1104C36.7024 20.9925 36.7407 21.0133 36.7217 21.0098C36.7148 21.0084 36.7193 21.0071 36.7373 21.0234Z" stroke="#413626" stroke-width="0.5"/>
<path d="M4.14 14.94C3.20667 14.94 2.31333 14.6733 1.46 14.14C1.03333 13.8733 0.68 13.5 0.4 13.02C0.133333 12.54 0 11.9867 0 11.36C0 10.1733 0.393333 9.20667 1.18 8.46C1.96667 7.71333 2.91333 7.28 4.02 7.16C3.27333 6.96 2.67333 6.61333 2.22 6.12C1.78 5.62667 1.56 5 1.56 4.24C1.56 3.09333 2.00667 2.18667 2.9 1.52C3.80667 0.84 4.84 0.5 6 0.5C7.16 0.5 8.12667 0.746667 8.9 1.24C9.67333 1.73333 10.06 2.4 10.06 3.24C10.06 3.53333 10.0067 3.82 9.9 4.1C9.80667 4.38 9.70667 4.58 9.6 4.7L9.46 4.9C9.03333 4.9 8.56 4.82667 8.04 4.68C7.53333 4.53333 7.16 4.34667 6.92 4.12L7.16 2.06C6.96 1.86 6.62 1.76 6.14 1.76C5.67333 1.76 5.3 2.00667 5.02 2.5C4.75333 2.98 4.62 3.53333 4.62 4.16C4.62 4.78667 4.69333 5.26 4.84 5.58C4.98667 5.9 5.19333 6.14667 5.46 6.32C5.87333 6.58667 6.36 6.77333 6.92 6.88L6.76 7.98C5.8 7.98 4.96667 8.26667 4.26 8.84C3.55333 9.4 3.2 10.1467 3.2 11.08C3.2 11.6667 3.38667 12.1533 3.76 12.54C4.14667 12.9133 4.64 13.1 5.24 13.1C6.33333 13.1 7.45333 12.5467 8.6 11.44L9.4 12.18C7.85333 14.02 6.1 14.94 4.14 14.94Z" fill="#413626"/>
<path d="M13.1621 1.47111L12.3649 11.4851L14.123 1.59587C14.16 1.38781 14.1396 1.16759 14.0264 0.989178C13.8707 0.743887 13.702 0.656827 13.4045 0.924092C13.2511 1.06191 13.1785 1.26555 13.1621 1.47111Z" fill="#413626"/>
<path d="M13.16 13.2158C13.16 13.7681 12.7123 14.2158 12.16 14.2158C11.6077 14.2158 11.16 13.7681 11.16 13.2158C11.16 12.6636 11.6077 12.2158 12.16 12.2158C12.7123 12.2158 13.16 12.6636 13.16 13.2158Z" fill="#413626"/>
</svg>
