<svg width="14" height="14" viewBox="0 0 14 14" fill="none" xmlns="http://www.w3.org/2000/svg">
<path fill-rule="evenodd" clip-rule="evenodd" d="M0 2C0 0.895508 0.895386 0 2 0H12C13.1046 0 14 0.895508 14 2V12C14 13.1045 13.1046 14 12 14H2C0.895386 14 0 13.1045 0 12V2ZM7.03674 9.91577C6.75317 10.2065 6.29004 10.2168 5.99268 9.94434C5.98669 9.93896 5.98193 9.93457 5.9762 9.92896L3.4762 7.4895C3.17981 7.2002 3.17395 6.72534 3.46326 6.42896C3.75244 6.13232 4.22729 6.12646 4.5238 6.41577L6.47058 8.31543L10.9004 3.49243C11.1805 3.1875 11.655 3.16724 11.9601 3.44751C12.2651 3.72778 12.2853 4.20215 12.0051 4.50732L7.05237 9.89941C7.04724 9.90503 7.04199 9.9104 7.03674 9.91577Z" fill="black"/>
</svg>
