<svg width="15" height="15" viewBox="0 0 15 15" fill="none" xmlns="http://www.w3.org/2000/svg">
<path d="M4.14 14.44C3.20667 14.44 2.31333 14.1733 1.46 13.64C1.03333 13.3733 0.68 13 0.4 12.52C0.133333 12.04 0 11.4867 0 10.86C0 9.67333 0.393333 8.70667 1.18 7.96C1.96667 7.21333 2.91333 6.78 4.02 6.66C3.27333 6.46 2.67333 6.11333 2.22 5.62C1.78 5.12667 1.56 4.5 1.56 3.74C1.56 2.59333 2.00667 1.68667 2.9 1.02C3.80667 0.34 4.84 0 6 0C7.16 0 8.12667 0.246667 8.9 0.74C9.67333 1.23333 10.06 1.9 10.06 2.74C10.06 3.03333 10.0067 3.32 9.9 3.6C9.80667 3.88 9.70667 4.08 9.6 4.2L9.46 4.4C9.03333 4.4 8.56 4.32667 8.04 4.18C7.53333 4.03333 7.16 3.84667 6.92 3.62L7.16 1.56C6.96 1.36 6.62 1.26 6.14 1.26C5.67333 1.26 5.3 1.50667 5.02 2C4.75333 2.48 4.62 3.03333 4.62 3.66C4.62 4.28667 4.69333 4.76 4.84 5.08C4.98667 5.4 5.19333 5.64667 5.46 5.82C5.87333 6.08667 6.36 6.27333 6.92 6.38L6.76 7.48C5.8 7.48 4.96667 7.76667 4.26 8.34C3.55333 8.9 3.2 9.64667 3.2 10.58C3.2 11.1667 3.38667 11.6533 3.76 12.04C4.14667 12.4133 4.64 12.6 5.24 12.6C6.33333 12.6 7.45333 12.0467 8.6 10.94L9.4 11.68C7.85333 13.52 6.1 14.44 4.14 14.44Z" fill="#493A22"/>
<path d="M13.1621 0.971112L12.3649 10.9851L14.123 1.09587C14.16 0.887809 14.1396 0.667594 14.0264 0.489178C13.8707 0.243887 13.702 0.156827 13.4045 0.424092C13.2511 0.561906 13.1785 0.765554 13.1621 0.971112Z" fill="#493A22"/>
<path d="M13.16 12.7158C13.16 13.2681 12.7123 13.7158 12.16 13.7158C11.6077 13.7158 11.16 13.2681 11.16 12.7158C11.16 12.1636 11.6077 11.7158 12.16 11.7158C12.7123 11.7158 13.16 12.1636 13.16 12.7158Z" fill="#493A22"/>
</svg>
